M48
;Layer_Color=9474304
;FILE_FORMAT=4:4
METRIC,LZ
;TYPE=PLATED
T1F00S00C0.2000
T2F00S00C0.2500
T3F00S00C0.7000
T5F00S00C0.8000
T6F00S00C1.1700
T7F00S00C1.2000
T8F00S00C1.4000
T9F00S00C1.5200
;TYPE=NON_PLATED
T10F00S00C0.9906
%
T01
X00123634Y00077996
X00150368Y00053086
X0016668Y00064779
X0018848Y00066431
X0018288Y00073914
X00178757Y00078426
X00172388Y00084795
X00213868Y0009652
X00198015Y00038564
X00095574Y00107002
T02
X00055372Y0003429
X00064734Y00043724
X0007874Y00034036
X0008509Y0003556
X00097536Y00047498
X0010076Y00076344
X0011759Y00066772
X00119634Y00094786
X00116201Y00115146
X0011176Y00119634
X00130048Y00119958
X00131412Y00126078
X001405Y00127722
X00146501Y0012954
X00152764Y00129914
X00164083Y00129814
X00170434Y00130556
X0017306Y0012445
X00177546Y00108195
X0017277Y00102616
X00177292Y00094448
X00194564Y00104394
X00198374Y00112522
X00193601Y00130376
X00193032Y0013662
X00185096Y00135339
X00202954Y00137331
X0020626Y00132004
X00218608Y001403
X00237108Y00144426
X00241732Y00140088
X00243867Y00129505
X00241174Y0011052
X00239093Y00099568
X00237744Y00093218
X00232664Y00082042
X00236982Y00076962
X00228854Y0007243
X00228132Y00066167
X00224216Y00062186
X002094Y0005798
X00205511Y00053021
X00206874Y000469
X00192484Y00052379
X00186133Y00051806
X00174082Y00056642
X00158151Y00054023
X00154256Y0005798
X00145288Y00091186
X00150368Y0009652
X00133096Y00082942
X00194564Y00080518
X00197358Y00073434
X00191262Y00029591
X00184894Y00027195
X00175476Y00026405
X0015621Y00012536
X00149606Y00017272
X00139446Y0001266
X00114314Y00013155
X001143Y00018542
X00116186Y00142298
X00105186
Y00153298
X00116186
X00126746Y00166624
X00143256Y0016002
X00148831Y0016393
X00149073Y00170195
X0015369Y00175006
X00152654Y00188722
X00176022Y0019939
X00183642Y00203708
X00190754Y00210566
X001905Y0018288
X0019661Y00179054
X00180554Y00168922
X00170289Y00166391
X00164463Y00164074
X00167558Y00155168
X0016699Y0014135
X0013824Y00147779
X00107442Y00178562
X00106934Y00192024
X001143Y00196088
X00103586Y0023781
X0009707Y00238163
X00137414Y002318
X00089916Y00167894
X00082042Y0016256
X00084836Y00128524
X00084328Y00121412
X00067056Y00122682
X00067818Y00129794
X00039624Y00139192
X00031672Y00136971
X00043434Y0011557
X0004191Y00076962
X00028702Y00074676
X00031141Y00066456
X00022098Y00094742
X00217678Y0011811
X0022035Y00167423
X00226242Y00169566
X00238086Y00162378
X00238497Y00154625
T03
X0004909Y00184061
X00060404Y00195374
X00071717Y00206688
X00084445Y00182647
X00073131Y00171333
T05
X00053848Y00111252
X00079248
X00104648
T06
X00177292Y00183642
T07
X0006275Y00069088
X0008775
T08
X0010084Y0003023
X0015265Y0022377
T09
X0014142Y00181762
X00179172Y0014777
X00213164Y00185522
X00175412Y00219514
T10
X00196769Y00149124
X00211138Y00163493
X00239875Y00120388
M30
